# xmcd
#
# Track frame offsets:
#	150
#	13445
#	25870
#	39840
#	52627
#	68845
#	83693
#	101033
#	114685
#	126793
#	140690
#	149340
#	159297
#	171193
#
# Disc length: 2437
#
# Revision: 1
# Processed by: cddbd v1.5.1PL0 Copyright (c) Steve Scherf et al.
# Submitted via: CDex 1.50
# Normalized: r0:TRMNUM
#
DISCID=b709830e
DTITLE=Lynn Anderson - Gold
DYEAR=1900
DGENRE=Country
TTITLE0=Rose Garden
TTITLE1=Stand by your man
TTITLE2=Cry
TTITLE3=Top of the world
TTITLE4=The devil went down to Georgia
TTITLE5=We've only just begun
TTITLE6=Close to you
TTITLE7=Talking in your sleep
TTITLE8=How can I unlove you
TTITLE9=Paradise
TTITLE10=Ride ride ride
TTITLE11=What a man my man is
TTITLE12=You d0n't have to say you love me
TTITLE13=You're my man
EXTD=
EXTT0=
EXTT1=
EXTT2=
EXTT3=
EXTT4=
EXTT5=
EXTT6=
EXTT7=
EXTT8=
EXTT9=
EXTT10=
EXTT11=
EXTT12=
EXTT13=
PLAYORDER=
